<svg xmlns="http://www.w3.org/2000/svg" xmlns:xlink="http://www.w3.org/1999/xlink" viewBox="0 0 329.55 479.76"><defs><style>.cls-1{fill:url(#linear-gradient);}.cls-2{fill:url(#linear-gradient-2);}.cls-3{fill:url(#linear-gradient-3);}.cls-4{fill:#fff;}</style><linearGradient id="linear-gradient" x1="-124.36" y1="342.81" x2="263.72" y2="118.75" gradientUnits="userSpaceOnUse"><stop offset="0.24" stop-color="#339cff"/><stop offset="0.48" stop-color="#33a7ff"/><stop offset="0.9" stop-color="#33c4ff"/><stop offset="1" stop-color="#3cf"/></linearGradient><linearGradient id="linear-gradient-2" x1="282.22" y1="62.25" x2="248.93" y2="142.59" gradientUnits="userSpaceOnUse"><stop offset="0" stop-color="#fef200"/><stop offset="0.66" stop-color="#fec100"/></linearGradient><linearGradient id="linear-gradient-3" x1="215.96" y1="177.24" x2="277.13" y2="116.08" gradientUnits="userSpaceOnUse"><stop offset="0.25" stop-color="#ff373c"/><stop offset="0.54" stop-color="#fc373a"/><stop offset="0.73" stop-color="#f33535"/><stop offset="0.9" stop-color="#e4332d"/><stop offset="0.97" stop-color="#dc3228"/></linearGradient></defs><g id="Layer_2" data-name="Layer 2"><g id="Layer_1-2" data-name="Layer 1"><path class="cls-1" d="M0,479.76S51.44,269,152.45,225.58V79.32S132,49.58,89.24,43.38c39.66-5.58,66.31-4.34,76.84,0,0-3.73-29.12-27.27-102.25-18C81.18,16.11,127,6.22,182.2,23.25,189.63,15.49,205.75,5.58,240.45,0V221.4s-9.91,60.57-62.59,74.21c-48.34,27.88-59.49,35.32-71.89,36.56C114.65,313,137.58,277,137.58,277S125.8,248.08,0,479.76Z"/><path class="cls-2" d="M314.81,142.08c9.7-12.84,15.62-29,14.63-50.17C325.73,13.17,269.53,2.36,239.58.51c.14,6.57-.2,47.87-.59,89.55C234.64,114.15,299.48,100.87,314.81,142.08Z"/><path class="cls-3" d="M239.24,182.75s54.29-10.52,76-41.54c-10.33-15.66-8.72-21.18-52.17-34.29-28.61-5.32-23.16-17.19-23.65-17.73Z"/><path class="cls-4" d="M239.54,23.1c-7.83.49-65.58,6.1-65.48,65.11.1,63.3,65.59,66.29,65.59,66.29S240.11,23.06,239.54,23.1Z"/><circle cx="210.95" cy="89.64" r="10.5"/></g></g></svg>